<?xml version="1.0" ?><svg style="enable-background:new 0 0 512 512;" version="1.1" viewBox="0 0 512 512" xml:space="preserve" xmlns="http://www.w3.org/2000/svg" xmlns:xlink="http://www.w3.org/1999/xlink"><style type="text/css">
	.st0{fill:#1ED760;}
	.st1{opacity:0.2;fill:#FFFFFF;}
	.st2{fill:#E7E7E7;}
</style><g id="outerdark"><path class="st0" d="M256.5,20C126.4,20,21,125.4,21,255.5S126.4,491,256.5,491S492,385.6,492,255.5S386.6,20,256.5,20z M256,460.5   c-112.9,0-204.5-91.6-204.5-204.5S143.1,51.5,256,51.5S460.5,143.1,460.5,256S368.9,460.5,256,460.5z"/></g><g id="outerlight"><path class="st1" d="M423.1,89l-22.4,22.4c37,37,59.8,88.1,59.8,144.6c0,112.9-91.6,204.5-204.5,204.5   c-56.4,0-107.6-22.9-144.6-59.8L90,422.1c92,92,241.1,92,333,0S515,181,423.1,89z"/></g><g id="innerdark"><circle class="st0" cx="256" cy="256" r="180"/></g><g id="Spotify"><g><path class="st2" d="M346.1,241.7c-2.2-0.7-4.6-1.1-6.6-2.3c-18.6-10.9-38.9-17-60-20.8c-18.3-3.3-36.9-4.6-55.5-4.1    c-18.3,0.5-36.5,2.7-54.2,7.9c-7.5,2.2-14.8-1.8-17-9.1c-2.2-7.2,1.9-14.7,9.3-16.9c14-4.2,28.3-6.6,42.8-7.9    c12.4-1.1,24.9-1.5,37.3-1c31,1.2,61.3,6.2,90.1,18.2c7.2,3,14.1,6.7,20.9,10.4c5.5,3,7.8,9.4,6.1,15.3    C357.6,237.2,352.2,241.2,346.1,241.7z"/><path class="st2" d="M226.1,237.4c33.3,0.3,63,5.9,91.2,18.9c5.7,2.6,11.1,5.7,16.5,8.8c5.5,3.2,7.1,10.2,3.9,15.4    c-3.4,5.5-10.1,7.2-15.6,3.8c-18.9-11.4-39.5-18-61.2-21.5c-17.8-2.9-35.7-3.4-53.7-1.5c-10.3,1.1-20.3,3-30.2,6    c-5.2,1.6-10.3-0.3-13.1-4.7c-2.7-4.1-2.4-9.7,1-13.3c1.4-1.5,3.3-2.9,5.3-3.5c12.9-4.1,26.2-6.5,39.7-7.6    C216,237.8,222.3,237.6,226.1,237.4z"/><path class="st2" d="M229,285c26.9,0,51.7,4.7,75,16c4.2,2.1,8.4,4.4,12.4,6.8c4.6,2.7,6,8.1,3.4,12.5c-2.6,4.5-8,5.8-12.7,3    c-13.2-8-27.4-13.5-42.5-16.7c-16-3.4-32.1-4.1-48.4-2.9c-12.3,0.9-24.4,2.8-36.5,5.5c-5.5,1.2-10.3-1.7-11.4-6.7    c-1.1-5.1,1.9-9.7,7.4-10.9C193.7,287.5,211.8,285.1,229,285z"/></g></g><g id="innerlight"><path class="st1" d="M128.1,382.6c-70.3-70.3-70.3-184.3,0-254.6s184.3-70.3,254.6,0"/></g></svg>